<svg width="232" height="40" viewBox="0 0 232 40" fill="none" xmlns="http://www.w3.org/2000/svg">
<path d="M9.70834 36.6667L12.4167 24.9583L3.33334 17.0833L15.3333 16.0417L20 5L24.6667 16.0417L36.6667 17.0833L27.5833 24.9583L30.2917 36.6667L20 30.4583L9.70834 36.6667Z" fill="#FE9E0D"/>
<path d="M57.7083 36.6667L60.4167 24.9583L51.3333 17.0833L63.3333 16.0417L68 5L72.6667 16.0417L84.6667 17.0833L75.5833 24.9583L78.2917 36.6667L68 30.4583L57.7083 36.6667Z" fill="#FE9E0D"/>
<path d="M105.708 36.6667L108.417 24.9583L99.3333 17.0833L111.333 16.0417L116 5L120.667 16.0417L132.667 17.0833L123.583 24.9583L126.292 36.6667L116 30.4583L105.708 36.6667Z" fill="#FE9E0D"/>
<path d="M153.708 36.6667L156.417 24.9583L147.333 17.0833L159.333 16.0417L164 5L168.667 16.0417L180.667 17.0833L171.583 24.9583L174.292 36.6667L164 30.4583L153.708 36.6667Z" fill="#FE9E0D"/>
<path d="M201.708 36.6667L204.417 24.9583L195.333 17.0833L207.333 16.0417L212 5L216.667 16.0417L228.667 17.0833L219.583 24.9583L222.292 36.6667L212 30.4583L201.708 36.6667Z" fill="#FE9E0D"/>
</svg>
